<svg  stroke="#E7286C" stroke-width="15" fill="#2D2D2D" xmlns="http://www.w3.org/2000/svg" width="1636" height="1007.21" viewBox="0 0 1636 1007.21">
<path class="cls-1" d="M466,338.21l-3.21,20.31a58.6,58.6,0,0,1,14.33,2A180.47,180.47,0,0,1,512,357.27v-50L513.91.15H322.33l-2,605.94H258.64L260.64,0H91L89,608.21H46.29L46,.2,0,.22l.31,654H134.88l2-608.21h77.61l-2,606.09H366.18l2-605.94h99.44Z"/><path class="cls-1" d="M1176,.21v133h338V183h-338.3V313.62H1513v80.69H1185.15A50.15,50.15,0,0,1,1182,403c-.27.56-.52,1.13-.77,1.7a144.51,144.51,0,0,0-4,24c-.12,3-.19,6-.23,9.05a47.43,47.43,0,0,1,5.38,2.49H1559V267.62H1221.68V229H1560V82.21H1222v-36h368v961h46V.21Z"/><path class="cls-1" d="M140.86,784.42H1540.78V594.21H1191.13a300.79,300.79,0,0,1,4.13,46h299.52v98.21H94.86V899.2H1504.59v61L46,960.21V740.91H0v265.3l1550.59,0v-153H140.86Z"/></svg>