<svg stroke="#E7286C" stroke-width="15" fill="#2D2D2D" xmlns="http://www.w3.org/2000/svg" width="1636" height="1007.21" viewBox="0 0 1636 1007.21"><path class="cls-1" d="M1176,.21v133h338V183h-338.3V313.62H1513v80.69H1181l-40-9.1c0-21.65-34.34-17-56-17l-573,1V307.27L513.91.15H322.33l-2,605.94H258.64L260.64,0H91L89,608.21H46.29L46,.2,0,.22l.31,654H134.88l2-608.21h77.61l-2,606.09H366.18l2-605.94h99.44L466,338.21l-9,57c0-12.33-12,234-12,234,.08,8.51,6.49,21.9,15,22l683,9,38-20h313.78v98.21H94.86V899.2H1504.59v61L46,960.21V740.91H0v265.3l1550.59,0v-153H140.86V784.42H1540.78V594.21H1181V440.31h378V267.62H1221.68V229H1560V82.21H1222v-36h368v961h46V.21Z"/></svg>