<svg id="Capa_1" data-name="Capa 1" xmlns="http://www.w3.org/2000/svg" width="180.68mm" height="180.68mm" viewBox="0 0 512.16 512.16">
<path d="M421.89,237.91C434.19,169,414.11,74.22,341,29.06A197.58,197.58,0,0,0,189.14,9.34C118.26,28.9,66.15,81.41,49.77,149.79a143.41,143.41,0,0,0-4.59,42.59,147.63,147.63,0,0,0,4.76,26.33,117.06,117.06,0,0,1,4.7,33.76c-.33,13.61-9.41,27.74-17.43,40.2-8.75,13.6-16.3,25.35-11.92,36.18a25.64,25.64,0,0,0,19.67,13,11.36,11.36,0,0,0,1.43.15,7.24,7.24,0,0,1,6,2,7.76,7.76,0,0,1,2.26,6.08c0,16.88.41,25.59,7.17,29.58a15.53,15.53,0,0,0-1.23,4A14.78,14.78,0,0,0,65,396.53,23.57,23.57,0,0,0,77.5,403.1l1,.22A21.2,21.2,0,0,1,78.7,407c-.06,3-.27,6-.63,9-1.3,13-3.09,30.79,22.09,39.28a50.1,50.1,0,0,0,15.54,1.95,239.4,239.4,0,0,0,70-13.84,93.78,93.78,0,0,1,11.49,38.24,8.24,8.24,0,0,0,2.31,5.74,7.71,7.71,0,0,0,5.56,2.38H401.73a7.83,7.83,0,0,0,7.35-5.61,8.46,8.46,0,0,0-2.81-9.15c-8.14-6.38-35.11-73.62-35.93-97.77,2.37-5.57,5.56-11.82,9.33-19.08A389.84,389.84,0,0,0,421.89,237.91ZM65.45,205.55a98.21,98.21,0,0,1-2.18-14.39,124.29,124.29,0,0,1,4.17-37.53C82.66,90.15,129.37,43.26,195.6,25A181.82,181.82,0,0,1,335.29,43c66.7,41.18,84.86,128.37,73.52,192a370,370,0,0,1-40.62,115.52c-4.33,8.33-8.06,15.52-10.76,22.18a8.28,8.28,0,0,0-.49,3.76c.2,19.42,17.16,70.75,31.74,97.09H214.61a119,119,0,0,0-11.56-35.63c22.79-9.22,42.88-21.08,52.52-34.1,2.62-3.56-.14-10.35-5.35-9.88-4.32.39-20.52,11.93-29,17.21-31.36,19.62-93.12,35.72-113.81,28.74-13.1-4.42-12.58-9.62-11.32-22.16a103.91,103.91,0,0,0,.71-10.72c0-13.69-5.35-17.77-13.39-19.7a9.71,9.71,0,0,1-3-1,6.06,6.06,0,0,0-2.85-.69l-.92-1-5.77-18.42a129.81,129.81,0,0,1-.51-16,24.17,24.17,0,0,0-6.54-17.19,22.63,22.63,0,0,0-16.49-7.16c-5.67-1.24-7.39-2.82-7.54-3.19-1.14-2.82,6.44-14.6,10.51-20.93,8.74-13.58,19.61-30.49,20.06-48.77a117.46,117.46,0,0,0-3.25-30.13"/><path d="M368.35,290.9a25.57,25.57,0,0,0-20.78-27.51l-16.34-22.65a25.27,25.27,0,0,0,2.28-5.85l15.83-6.33a25.54,25.54,0,1,0,24.72-41.79L361.24,161.2a25.5,25.5,0,0,0-31.35-39.7l-14.3-11.87a25.22,25.22,0,0,0,1.67-8.85,25.54,25.54,0,0,0-44-17.67l-25.3-6.33a25.44,25.44,0,0,0-49-.29l-33.81,6.76a25.48,25.48,0,0,0-40.74,30.07l-16.56,22.06a25.52,25.52,0,0,0-1.46,49.93l13.69,33.82a25.55,25.55,0,1,0,42,26.72H207.9a24.72,24.72,0,0,0,27.93,16.67l28.33,43.09a25.54,25.54,0,1,0,44.12,21.5l21.14-16.9a25.47,25.47,0,0,0,38.93-19.31Zm.11-87.72a8.53,8.53,0,1,1-7.81,11.92c0-.08,0-.16,0-.24l-.05-.08a8.25,8.25,0,0,1-.62-3.07A8.54,8.54,0,0,1,368.46,203.18Zm-33.95-61.47A8.53,8.53,0,1,1,342.86,152a8.33,8.33,0,0,1-3.07-.62l-.08-.05c-.07,0-.15,0-.23,0A8.53,8.53,0,0,1,334.51,141.71ZM326,162.57h0L310.25,202l-27.64-22.11a25.47,25.47,0,0,0,7.89-12.15L324.31,161A23.32,23.32,0,0,0,326,162.57Zm-9.08,68.52a8.53,8.53,0,1,1-8.21-10.84,8.34,8.34,0,0,1,3.08.62l.07,0a2,2,0,0,0,.24,0A8.55,8.55,0,0,1,316.94,231.09ZM291.66,92.25a8.53,8.53,0,1,1-8.53,8.53A8.53,8.53,0,0,1,291.66,92.25Zm-44.9,1.83L266.25,99c-.05.61-.19,1.2-.19,1.82a25.63,25.63,0,0,0,25.6,25.6,25.35,25.35,0,0,0,13-3.65l14.3,11.86a25.56,25.56,0,0,0-1.68,8.86c0,.51.13,1,.16,1.51l-27.8,5.55A25.61,25.61,0,0,0,270,135.31l-31.25-31.24A25.67,25.67,0,0,0,246.76,94.08Zm27.84,66.43a8.54,8.54,0,1,1-8.54-8.53A8.54,8.54,0,0,1,274.6,160.51ZM223.4,75.18a8.54,8.54,0,1,1-8.54,8.53A8.53,8.53,0,0,1,223.4,75.18Zm1.69,39.36,25.62,25.62A25.56,25.56,0,0,0,242,152H221.82a25.54,25.54,0,0,0-11.12-13.45Zm-53-15.27,27.79-5.55a25.59,25.59,0,0,0,10.66,12L195,131.52l-26.78-17.19a25.41,25.41,0,0,0,4-13.55C172.2,100.26,172.07,99.78,172.05,99.27Zm34.28,61.24A8.54,8.54,0,1,1,197.8,152,8.53,8.53,0,0,1,206.33,160.51ZM146.6,92.25a8.53,8.53,0,1,1-8.54,8.53A8.53,8.53,0,0,1,146.6,92.25Zm-9.29,32.32a24,24,0,0,0,16.35.7L180,142.17a25.59,25.59,0,0,0-6.24,9.81H136.49a25.62,25.62,0,0,0-10.08-12.89Zm-24.85,44.48a8.54,8.54,0,1,1,8.54-8.54A8.53,8.53,0,0,1,112.46,169.05Zm25.6,76.8a8.54,8.54,0,1,1,8.54-8.54A8.53,8.53,0,0,1,138.06,245.85Zm4.86-33.65a26.44,26.44,0,0,0-4.86-.49c-.84,0-1.64.17-2.46.25L124,183.26a25.58,25.58,0,0,0,12.52-14.21h37.28a25.52,25.52,0,0,0,7.71,11Zm65,16.58H162.09a25.52,25.52,0,0,0-3.89-7.09l41.91-34.92,14.27,32A25.56,25.56,0,0,0,207.9,228.78Zm13.92-59.73H242a25.54,25.54,0,0,0,11.12,13.45l-17.74,29.57a25.48,25.48,0,0,0-3.49-.36c-.66,0-1.28.15-1.93.2l-14.65-32.86A25.32,25.32,0,0,0,221.82,169.05Zm10.11,76.8a8.54,8.54,0,1,1,8.53-8.54A8.53,8.53,0,0,1,231.93,245.85Zm36.43-55.51,23.83,19.07a25.49,25.49,0,0,0-7.89,12.14l-28.81,5.76a25.83,25.83,0,0,0-4.88-7.38Zm14.77,140.84a8.54,8.54,0,1,1,8.53-8.53A8.53,8.53,0,0,1,283.13,331.18Zm34.13-42.67a25.33,25.33,0,0,0,1.52,8.36l-14.4,11.52a24.62,24.62,0,0,0-25.15-10.95L250.9,254.35a25.28,25.28,0,0,0,5.46-9.81l28.81-5.76a25.56,25.56,0,0,0,33.43,13.61L329.13,267A25.56,25.56,0,0,0,317.26,288.51Zm8.31-78.86L341.86,169c.34,0,.66.1,1,.1a26.16,26.16,0,0,0,3.07-.31l10.33,20.61a25.54,25.54,0,0,0-13.4,22.36c0,.35.09.67.11,1l-11.48,4.59A25.51,25.51,0,0,0,325.57,209.65Zm17.29,87.4a8.54,8.54,0,1,1,8.54-8.54A8.53,8.53,0,0,1,342.86,297.05Z"/></svg>