<svg stroke="white" stroke-width="5" fill="none"  id="Layer_1" data-name="Layer 1" xmlns="http://www.w3.org/2000/svg" viewBox="0 0 504.77 153.07"><path d="M150.64,274h-1.83V259.29a7.34,7.34,0,0,0-7.34-7.33V220.77a7.35,7.35,0,0,0-7.34-7.34h-77a7.34,7.34,0,0,0-7.33,7.34V252a7.34,7.34,0,0,0-7.34,7.33V274H40.57a1.83,1.83,0,0,0-1.83,1.84v7.33A1.83,1.83,0,0,0,40.57,285h1.84v7.34a1.83,1.83,0,0,0,1.83,1.83h5.51a1.83,1.83,0,0,0,1.79-1.47l1.55-7.7h85l1.54,7.7a1.84,1.84,0,0,0,1.8,1.47H147a1.83,1.83,0,0,0,1.83-1.83V285h1.83a1.84,1.84,0,0,0,1.84-1.84v-7.33A1.84,1.84,0,0,0,150.64,274Zm-97.22-53.2a3.67,3.67,0,0,1,3.66-3.67h77.05a3.67,3.67,0,0,1,3.67,3.67V252h-3.67v-7.34a7.34,7.34,0,0,0-7.33-7.34h-22a7.36,7.36,0,0,0-7.34,7.34V252H93.77v-7.34a7.34,7.34,0,0,0-7.33-7.34h-22a7.36,7.36,0,0,0-7.34,7.34V252H53.42Zm77,23.85V252H101.11v-7.34a3.68,3.68,0,0,1,3.67-3.67h22A3.66,3.66,0,0,1,130.46,244.62Zm-40.35,0V252H60.75v-7.34A3.68,3.68,0,0,1,64.42,241h22A3.68,3.68,0,0,1,90.11,244.62Zm-44,14.67a3.66,3.66,0,0,1,3.67-3.66h91.72a3.66,3.66,0,0,1,3.67,3.66V274H46.08Zm2.16,31.19H46.08V285h3.26Zm96.9,0H143l-1.1-5.5h3.26Zm3.67-9.17H42.41v-3.67h106.4Z" transform="translate(-8.44 -182.76)"/><path d="M8.44,182.76V335.83H513.21V182.76Z" transform="translate(-8.44 -182.76)"/><path d="M122.35,357.15" transform="translate(-8.44 -182.76)"/></svg>