<svg stroke="white" stroke-width="5" fill="none"  id="Layer_1" data-name="Layer 1" xmlns="http://www.w3.org/2000/svg" viewBox="0 0 504.77 153.07"><defs><style>.cls-1{fill:#bfb5b4;stroke:#bfb5b4;stroke-miterlimit:10;}</style></defs><path d="M-.83,278.82V431.89H503.94V278.82Z" transform="translate(0.83 -278.82)"/><path d="M121.52,356.32" transform="translate(0.83 -278.82)"/><path class="cls-1" d="M33.48,390.06v7.34a1.83,1.83,0,0,0,1.84,1.83h5.5a1.83,1.83,0,0,0,1.8-1.47l1.54-7.7S35.39,390.4,33.48,390.06Z" transform="translate(0.83 -278.82)"/><path class="cls-1" d="M129.43,389c1.58-.15,7.59.17,10.56-.25,3.23-.47,3.37-1.39,3.37-2.22v-6.42a2.75,2.75,0,0,0-2.75-2.75h0a.92.92,0,0,1-.92-.92V362.66a7.35,7.35,0,0,0-6.55-7.29.91.91,0,0,1-.79-.91V324.14A7.36,7.36,0,0,0,125,316.8H48a7.36,7.36,0,0,0-7.34,7.34v30.32a.9.9,0,0,1-.79.91,7.34,7.34,0,0,0-6.54,7.29v13.76a.92.92,0,0,1-.92.92h0a2.75,2.75,0,0,0-2.75,2.75v6.42a1.84,1.84,0,0,0,1.83,1.84S129.34,389,129.43,389ZM44.17,324.61A3.66,3.66,0,0,1,47.84,321h77.05a3.67,3.67,0,0,1,3.67,3.66v30.27a.92.92,0,0,1-.92.92h-1.83a.92.92,0,0,1-.92-.92v-6.42a7.34,7.34,0,0,0-7.34-7.33h-22a7.34,7.34,0,0,0-7.34,7.33v6.42a.92.92,0,0,1-.92.92H85.45a.92.92,0,0,1-.92-.92v-6.42a7.34,7.34,0,0,0-7.34-7.33h-22a7.34,7.34,0,0,0-7.34,7.33v6.42a.92.92,0,0,1-.92.92H45.09a.92.92,0,0,1-.92-.92Z" transform="translate(0.83 -278.82)"/><path class="cls-1" d="M139.57,390.55v7.34a1.83,1.83,0,0,1-1.83,1.83h-5.5a1.82,1.82,0,0,1-1.8-1.47l-1.54-7.7S137.67,390.89,139.57,390.55Z" transform="translate(0.83 -278.82)"/></svg>