<svg  stroke="white" stroke-width="5" fill="none"  id="Layer_1" data-name="Layer 1" xmlns="http://www.w3.org/2000/svg" xmlns:xlink="http://www.w3.org/1999/xlink" width="178.07mm" height="124.74mm" viewBox="0 0 504.77 353.59"><defs>
<clipPath id="clip-path" transform="translate(0.83 -78.29)"><path class="cls-1" d="M3.61,45.35V198.42H508.39V45.35Z"/></clipPath></defs><path d="M-.83,278.82V431.89H503.94V278.82Z" transform="translate(0.83 -78.29)"/><path d="M121.52,356.32" transform="translate(0.83 -78.29)"/><path class="cls-2" d="M33.48,390.06v7.34a1.83,1.83,0,0,0,1.84,1.83h5.5a1.83,1.83,0,0,0,1.8-1.47l1.54-7.7S35.39,390.4,33.48,390.06Z" transform="translate(0.83 -78.29)"/><path class="cls-3" d="M144.22,375.36a.89.89,0,0,1-.58.21q-11.7,0-23.41.13c-14.08.17-28.15.89-42.23,1s-28.06-.43-42.09-.55a.92.92,0,0,1-.94-.89,3.25,3.25,0,0,0-3.18,3.24v6.42a2.33,2.33,0,0,0,2.33,2.33c90.51.6,97.43.63,98,.63h.05c.57-.05,1.78,0,3.19,0a59.31,59.31,0,0,0,7.39-.22c3.17-.46,3.8-1.38,3.8-2.71v-6.42A3.25,3.25,0,0,0,144.22,375.36Z" transform="translate(0.83 -78.29)"/><path class="cls-3" d="M85,351.49c1.5-2.4,1.12-4.55,1.11-6.73,0-3.28-1.38-5.34-4.66-5.32h-.33c-8.55.05-17.1.08-25.66,0-3.28,0-5.61.58-5.71,3.86,0,.05,0,5.38,0,5.43-.1,3.37,2.17,2.84,5.55,2.84,2.53,0,5.06,0,7.58,0,6.2.09,6.78.16,13,.44C77.76,352.07,84.35,352.56,85,351.49Z" transform="translate(0.83 -78.29)"/><path class="cls-3" d="M127.93,343.14a3.62,3.62,0,0,0-3.72-3.65c-4,.11-8-.05-11.93-.15-6.31-.14-12.63-.09-19,0a4.19,4.19,0,0,0-4,3.83c-.23,2.9-.86,7.48,2.09,8.5,2.18.76,5.46.43,9.34.46,6.29,0,12.51-.36,18.8-.36,1.94,0,3.89.1,5.53,0,1.88-.12,2.72-1.3,2.75-3.18S127.92,345,127.93,343.14Z" transform="translate(0.83 -78.29)"/><path class="cls-3" d="M127.69,314.68h-77a7.85,7.85,0,0,0-7.84,7.83v28.95h.08c1.47.18,2.95.29,4.42.36.19-6.54,0-13.1.4-19.63a12.52,12.52,0,0,1,1.24-5.63,8.45,8.45,0,0,1,3.12-3.05c5.15-3,12-2.31,17.73-2.09,10,.38,20-.42,30-.65,5.74-.14,11.49-.15,17.23.19,2.21.13,4.43.24,6.63.47,1.61.17,3.54.43,4.6,1.8s1,3.25,1.1,4.81c.15,2.27.41,4.53.52,6.81,0,.63,0,1.26,0,1.89,0,.43.05,1,.05,1.65,0,4.32-.09,8.63-.11,12.94,1.9-.07,3.8-.1,5.7,0V322.51A7.85,7.85,0,0,0,127.69,314.68Z" transform="translate(0.83 -78.29)"/><path class="cls-3" d="M136.24,353.3c-6.31-.27-12.62.49-18.92.7s-12.59.15-18.89.11-12.64.08-19-.09-12.32-.44-18.48-.31-12.1.48-18.12-.26a1,1,0,0,1-.48-.2A7.85,7.85,0,0,0,35.46,361v13.19a.94.94,0,0,1,.45-.11c7.93.07,15.85.25,23.77.39,14.07.25,28.12.05,42.19-.37,13.66-.41,27.33-.55,41-.57V361A7.84,7.84,0,0,0,136.24,353.3Z" transform="translate(0.83 -78.29)"/><path class="cls-3" d="M84.61,351.71" transform="translate(0.83 -78.29)"/><g class="cls-4"><path class="cls-5" d="M150.63,143.68l.69-1.63-2.68-14.22a7.93,7.93,0,0,0-7.92-7.93V86.22a7.94,7.94,0,0,0-7.93-7.93H49.58a7.93,7.93,0,0,0-7.92,7.93V119.9a7.94,7.94,0,0,0-7.93,7.93v15.85h-2a2,2,0,0,0-2,2v7.92a2,2,0,0,0,2,2h2v7.93a2,2,0,0,0,2,2h5.95a2,2,0,0,0,1.94-1.59l1.66-8.32h91.85l1.67,8.32a2,2,0,0,0,1.94,1.59h5.94a2,2,0,0,0,2-2v-7.93h2a2,2,0,0,0,2-2v-7.92A2,2,0,0,0,150.63,143.68Zm-105-57.46a4,4,0,0,1,4-4h83.21a4,4,0,0,1,4,4V119.9h-4V112a7.93,7.93,0,0,0-7.92-7.93H101.09A7.93,7.93,0,0,0,93.17,112v7.92h-4V112a7.94,7.94,0,0,0-7.93-7.93H57.51A7.94,7.94,0,0,0,49.58,112v7.92h-4ZM128.83,112v7.92H97.13V112a4,4,0,0,1,4-4h23.78A4,4,0,0,1,128.83,112Zm-43.59,0v7.92H53.54V112a4,4,0,0,1,4-4H81.28A4,4,0,0,1,85.24,112ZM37.69,127.83a4,4,0,0,1,4-4h99.06a4,4,0,0,1,4,4v15.85h-107ZM40,161.51H37.69v-5.95h3.53Zm104.65,0h-2.34l-1.18-5.95h3.52Zm4-9.91H33.73v-4H148.64Z" transform="translate(0.83 -78.29)"/></g><path class="cls-3" d="M139.57,390.55v7.34a1.83,1.83,0,0,1-1.83,1.83h-5.5a1.82,1.82,0,0,1-1.8-1.47l-1.54-7.7S137.67,390.89,139.57,390.55Z" transform="translate(0.83 -78.29)"/><path class="cls-3" d="M137.74,400.22h-5.5a2.34,2.34,0,0,1-2.29-1.87L128.28,390l.64,0c.08,0,8.73.33,10.57,0l.58-.11v7.94A2.33,2.33,0,0,1,137.74,400.22Zm-8.23-9.15,1.42,7.08a1.33,1.33,0,0,0,1.31,1.07h5.5a1.33,1.33,0,0,0,1.33-1.33v-6.78C136.83,391.3,131.39,391.14,129.51,391.07Z" transform="translate(0.83 -78.29)"/></svg>