<svg stroke="white" stroke-width="5" fill="none"  id="Layer_1" data-name="Layer 1" xmlns="http://www.w3.org/2000/svg" width="180.62mm" height="180.62mm" viewBox="0 0 512 512"><defs><style>.cls-1,.cls-2{fill:#bfb5b4;}.cls-1{stroke:#bfb5b4;stroke-miterlimit:10;}.cls-3{fill:#e5e5e5;}</style></defs><path d="M-.83,278.82V431.89H503.94V278.82Z"/><path class="cls-1" d="M33.48,390.06v7.34a1.83,1.83,0,0,0,1.84,1.83h5.5a1.83,1.83,0,0,0,1.8-1.47l1.54-7.7S35.39,390.4,33.48,390.06Z"/><path class="cls-2" d="M129.43,389c1.58-.15,7.59.17,10.56-.25,3.23-.47,3.37-1.39,3.37-2.22v-6.42a2.75,2.75,0,0,0-2.75-2.75h0a.92.92,0,0,1-.92-.92V362.66a7.35,7.35,0,0,0-6.55-7.29.91.91,0,0,1-.79-.91V324.14A7.36,7.36,0,0,0,125,316.8H48a7.36,7.36,0,0,0-7.34,7.34v30.32a.9.9,0,0,1-.79.91,7.34,7.34,0,0,0-6.54,7.29v13.76a.92.92,0,0,1-.92.92h0a2.75,2.75,0,0,0-2.75,2.75v6.42a1.84,1.84,0,0,0,1.83,1.84S129.34,389,129.43,389ZM44.17,324.61A3.66,3.66,0,0,1,47.84,321h77.05a3.67,3.67,0,0,1,3.67,3.66v30.27a.92.92,0,0,1-.92.92h-1.83a.92.92,0,0,1-.92-.92v-6.42a7.34,7.34,0,0,0-7.34-7.33h-22a7.34,7.34,0,0,0-7.34,7.33v6.42a.92.92,0,0,1-.92.92H85.45a.92.92,0,0,1-.92-.92v-6.42a7.34,7.34,0,0,0-7.34-7.33h-22a7.34,7.34,0,0,0-7.34,7.33v6.42a.92.92,0,0,1-.92.92H45.09a.92.92,0,0,1-.92-.92Z"/><path class="cls-2" d="M129.43,389.48l-98-.63a2.34,2.34,0,0,1-2.33-2.34v-6.42a3.26,3.26,0,0,1,3.25-3.25.42.42,0,0,0,.42-.42V362.66a7.82,7.82,0,0,1,7-7.79.4.4,0,0,0,.34-.41V324.14A7.87,7.87,0,0,1,48,316.3H125a7.87,7.87,0,0,1,7.84,7.84v30.32a.4.4,0,0,0,.35.41,7.83,7.83,0,0,1,7,7.79v13.76a.42.42,0,0,0,.42.42,3.26,3.26,0,0,1,3.25,3.25v6.42c0,1.34-.64,2.26-3.8,2.71a61.16,61.16,0,0,1-7.39.23c-1.41,0-2.63,0-3.19,0h0ZM48,317.3a6.87,6.87,0,0,0-6.84,6.84v30.32a1.4,1.4,0,0,1-1.24,1.41,6.82,6.82,0,0,0-6.09,6.79v13.76a1.43,1.43,0,0,1-1.42,1.42,2.25,2.25,0,0,0-2.25,2.25v6.42a1.34,1.34,0,0,0,1.33,1.34c1,0,96.37.63,98,.63.62-.06,1.79,0,3.27,0a60.53,60.53,0,0,0,7.24-.22c2.94-.42,2.94-1.14,2.94-1.72v-6.42a2.25,2.25,0,0,0-2.25-2.25,1.42,1.42,0,0,1-1.42-1.42V362.66a6.83,6.83,0,0,0-6.1-6.79,1.4,1.4,0,0,1-1.24-1.41V324.14A6.86,6.86,0,0,0,125,317.3Zm79.68,39h-1.83a1.41,1.41,0,0,1-1.42-1.42v-6.42a6.85,6.85,0,0,0-6.84-6.83h-22a6.85,6.85,0,0,0-6.84,6.83v6.42a1.42,1.42,0,0,1-1.42,1.42H85.45A1.42,1.42,0,0,1,84,354.88v-6.42a6.85,6.85,0,0,0-6.84-6.83h-22a6.85,6.85,0,0,0-6.84,6.83v6.42a1.42,1.42,0,0,1-1.42,1.42H45.09a1.42,1.42,0,0,1-1.42-1.42V324.61a4.17,4.17,0,0,1,4.17-4.16h77.05a4.18,4.18,0,0,1,4.17,4.16v30.27A1.42,1.42,0,0,1,127.64,356.3Zm-32.1-15.67h22a7.86,7.86,0,0,1,7.84,7.83v6.42a.42.42,0,0,0,.42.42h1.83a.42.42,0,0,0,.42-.42V324.62a3.18,3.18,0,0,0-3.17-3.17h-77a3.18,3.18,0,0,0-3.17,3.17v30.26a.42.42,0,0,0,.42.42h1.83a.42.42,0,0,0,.42-.42v-6.42a7.86,7.86,0,0,1,7.84-7.83h22A7.86,7.86,0,0,1,85,348.46v6.42a.42.42,0,0,0,.42.42h1.83a.42.42,0,0,0,.42-.42v-6.42A7.85,7.85,0,0,1,95.54,340.63Z"/><path class="cls-2" d="M139.57,390.55v7.34a1.83,1.83,0,0,1-1.83,1.83h-5.5a1.82,1.82,0,0,1-1.8-1.47l-1.54-7.7S137.67,390.89,139.57,390.55Z"/><path class="cls-2" d="M137.74,400.22h-5.5a2.34,2.34,0,0,1-2.29-1.87L128.28,390l.64,0c.08,0,8.73.33,10.57,0l.58-.11v7.94A2.33,2.33,0,0,1,137.74,400.22Zm-8.23-9.15,1.42,7.08a1.33,1.33,0,0,0,1.31,1.07h5.5a1.33,1.33,0,0,0,1.33-1.33v-6.78C136.83,391.3,131.39,391.14,129.51,391.07Z"/><path d="M3.61,54.16V207.23H508.39V54.16Z"/><path class="cls-3" d="M147,150.51h-2V134.66a7.93,7.93,0,0,0-7.92-7.92V93.05a7.93,7.93,0,0,0-7.93-7.92H46A7.93,7.93,0,0,0,38,93.05v33.69a7.93,7.93,0,0,0-7.92,7.92v15.85h-2a2,2,0,0,0-2,2v7.93a2,2,0,0,0,2,2h2v7.92a2,2,0,0,0,2,2H38a2,2,0,0,0,1.94-1.6l1.67-8.31H133.5l1.66,8.31a2,2,0,0,0,2,1.6h5.94a2,2,0,0,0,2-2V162.4h2a2,2,0,0,0,2-2v-7.93A2,2,0,0,0,147,150.51ZM42,93.05a4,4,0,0,1,4-4h83.21a4,4,0,0,1,4,4v33.69h-4v-7.93a7.93,7.93,0,0,0-7.92-7.92H97.48a7.93,7.93,0,0,0-7.92,7.92v7.93h-4v-7.93a7.93,7.93,0,0,0-7.92-7.92H53.89A7.93,7.93,0,0,0,46,118.81v7.93H42Zm83.21,25.76v7.93H93.52v-7.93a4,4,0,0,1,4-4h23.78A4,4,0,0,1,125.22,118.81Zm-43.59,0v7.93H49.93v-7.93a4,4,0,0,1,4-4H77.67A4,4,0,0,1,81.63,118.81ZM34.08,134.66a4,4,0,0,1,4-4h99.07a4,4,0,0,1,4,4v15.85h-107Zm2.34,33.68H34.08V162.4h3.53Zm104.65,0h-2.34l-1.19-5.94h3.53Zm4-9.9H30.12v-4H145Z"/></svg>