<svg stroke="white" stroke-width="5" fill="none"  id="Layer_1" data-name="Layer 1" xmlns="http://www.w3.org/2000/svg" width="180.62mm" height="180.62mm" viewBox="0 0 512 512"><path d="M197.33,170.67h-160A37.38,37.38,0,0,1,0,133.33v-96A37.38,37.38,0,0,1,37.33,0h160a37.38,37.38,0,0,1,37.34,37.33v96A37.38,37.38,0,0,1,197.33,170.67Z" transform="translate(0 0)"/><path d="M197.33,512h-160A37.38,37.38,0,0,1,0,474.67v-224a37.38,37.38,0,0,1,37.33-37.34h160a37.38,37.38,0,0,1,37.34,37.34v224A37.38,37.38,0,0,1,197.33,512Z" transform="translate(0 0)"/><path d="M474.67,512h-160a37.38,37.38,0,0,1-37.34-37.33v-96a37.38,37.38,0,0,1,37.34-37.34h160A37.38,37.38,0,0,1,512,378.67v96A37.38,37.38,0,0,1,474.67,512Z" transform="translate(0 0)"/><path d="M474.67,298.67h-160a37.38,37.38,0,0,1-37.34-37.34v-224A37.38,37.38,0,0,1,314.67,0h160A37.38,37.38,0,0,1,512,37.33v224A37.38,37.38,0,0,1,474.67,298.67Z" transform="translate(0 0)"/></svg>