<svg  stroke="white" stroke-width="5" fill="none" id="Layer_1" data-name="Layer 1" xmlns="http://www.w3.org/2000/svg" width="178.07mm" height="178.34mm" viewBox="0 0 504.77 505.54"><defs>
</defs><path d="M3.61,197V313.74a18.17,18.17,0,0,0,18.17,18.17H490.22a18.17,18.17,0,0,0,18.17-18.17V197a18.18,18.18,0,0,0-18.17-18.17H21.78A18.18,18.18,0,0,0,3.61,197Z" transform="translate(-3.61 -3.62)"/><path d="M121.52,256.34" transform="translate(-3.61 -3.62)"/><path class="cls-1" d="M34.8,289.69V297a1.83,1.83,0,0,0,1.83,1.83h5.51a1.82,1.82,0,0,0,1.79-1.47l1.54-7.7S36.7,290,34.8,289.69Z" transform="translate(-3.61 -3.62)"/><path class="cls-2" d="M144.22,275.38a.89.89,0,0,1-.58.21q-11.7,0-23.41.14c-14.08.16-28.15.88-42.23,1s-28.06-.42-42.09-.55a.89.89,0,0,1-.89-.65.33.33,0,0,0-.33-.22,3.25,3.25,0,0,0-2.9,3.22v6.42a2.33,2.33,0,0,0,2.33,2.33l98,.64h.05c.57-.06,1.78-.05,3.19,0a61.16,61.16,0,0,0,7.39-.23c3.17-.46,3.8-1.37,3.8-2.71v-6.42A3.26,3.26,0,0,0,144.22,275.38Z" transform="translate(-3.61 -3.62)"/><path class="cls-2" d="M85,251.51c1.57-2.53,1.08-4.76,1.11-7.06a4.94,4.94,0,0,0-5-5h0c-8.55,0-17.1.07-25.66-.05-3.28,0-5.61.58-5.71,3.87,0,0,0,5.37,0,5.42-.1,3.38,2.17,2.84,5.55,2.84,2.53,0,5.06,0,7.58,0,6.2.1,6.78.17,13,.44C77.76,252.09,84.35,252.58,85,251.51Z" transform="translate(-3.61 -3.62)"/><path class="cls-2" d="M127.93,243.49a4,4,0,0,0-4.06-4c-3.86.09-7.73-.06-11.59-.15-6.31-.15-12.63-.1-19,0a4.2,4.2,0,0,0-4,3.84c-.23,2.9-.86,7.47,2.09,8.49,2.18.76,5.46.43,9.34.46,6.29,0,12.51-.36,18.8-.36,1.7,0,3.41.08,4.92,0a3.5,3.5,0,0,0,3.36-3.46C127.88,246.77,127.91,245.13,127.93,243.49Z" transform="translate(-3.61 -3.62)"/><path class="cls-2" d="M127.69,214.7h-77a7.85,7.85,0,0,0-7.84,7.84v28.94h.08c1.36.17,2.73.27,4.09.34a.32.32,0,0,0,.34-.31c.17-6.43-.05-12.88.39-19.3a12.55,12.55,0,0,1,1.24-5.63,8.45,8.45,0,0,1,3.12-3c5.15-3,12-2.31,17.73-2.09,10,.38,20-.42,30-.65,5.74-.14,11.49-.15,17.23.19,2.21.13,4.43.24,6.63.47,1.61.17,3.54.44,4.6,1.81s1,3.24,1.1,4.8c.15,2.27.41,4.53.52,6.81,0,.63,0,1.26,0,1.9,0,.42.05,1,.05,1.65,0,4.2-.08,8.4-.1,12.6a.31.31,0,0,0,.33.32c1.68-.06,3.36-.08,5,0a.31.31,0,0,0,.32-.32V222.54A7.85,7.85,0,0,0,127.69,214.7Z" transform="translate(-3.61 -3.62)"/><path class="cls-2" d="M136.27,253.33h-.06c-6.3-.28-12.59.48-18.89.69s-12.59.15-18.89.11-12.64.08-19-.08-12.32-.45-18.48-.32-12.1.49-18.12-.26a1.08,1.08,0,0,1-.48-.19,7.83,7.83,0,0,0-6.94,7.78v13.19a1.07,1.07,0,0,1,.45-.11c7.93.07,15.85.26,23.77.39,14.07.25,28.12.05,42.19-.37,13.56-.41,27.11-.55,40.67-.57a.32.32,0,0,0,.32-.32V261.06A7.83,7.83,0,0,0,136.27,253.33Z" transform="translate(-3.61 -3.62)"/><path class="cls-2" d="M84.61,251.73" transform="translate(-3.61 -3.62)"/><path class="cls-2" d="M142.86,289.7v7.38a1.79,1.79,0,0,1-1.79,1.79h-5.58a1.8,1.8,0,0,1-1.76-1.43l-1.54-7.74S141,290,142.86,289.7Z" transform="translate(-3.61 -3.62)"/><path d="M3.61,21.8V138.52a18.17,18.17,0,0,0,18.17,18.17H490.22a18.17,18.17,0,0,0,18.17-18.17V21.8A18.18,18.18,0,0,0,490.22,3.62H21.78A18.18,18.18,0,0,0,3.61,21.8Z" transform="translate(-3.61 -3.62)"/><path d="M121.52,81.13" transform="translate(-3.61 -3.62)"/><path class="cls-2" d="M84.61,76.52" transform="translate(-3.61 -3.62)"/><path class="cls-3" d="M86,35.76A25.59,25.59,0,0,0,68,79.17a21.08,21.08,0,0,1,5.87,11.94h25a20.53,20.53,0,0,1,5.78-11.84A25.6,25.6,0,0,0,86,35.76Z" transform="translate(-3.61 -3.62)"/><path class="cls-3" d="M74.09,96.8H98.73v5.79H74.09Z" transform="translate(-3.61 -3.62)"/><path class="cls-3" d="M74.14,108.27a12.31,12.31,0,0,0,24.54,0Z" transform="translate(-3.61 -3.62)"/><path d="M3.61,374.27V491a18.18,18.18,0,0,0,18.17,18.17H490.22A18.18,18.18,0,0,0,508.39,491V374.27a18.17,18.17,0,0,0-18.17-18.17H21.78A18.17,18.17,0,0,0,3.61,374.27Z" transform="translate(-3.61 -3.62)"/><path d="M121.52,433.6" transform="translate(-3.61 -3.62)"/><path class="cls-2" d="M84.61,429" transform="translate(-3.61 -3.62)"/><path class="cls-2" d="M138.24,391.21h-89a5.91,5.91,0,0,0-5.91,5.9v58.67a5.91,5.91,0,0,0,5.91,5.9h89a5.91,5.91,0,0,0,5.91-5.9V397.11A5.91,5.91,0,0,0,138.24,391.21Z" transform="translate(-3.61 -3.62)"/><path class="cls-2" d="M125.25,476.25H109.31v-8.66H78.2v8.66H62.26a3,3,0,0,0,0,5.9h63a2.95,2.95,0,1,0,0-5.9Z" transform="translate(-3.61 -3.62)"/></svg>