<?xml version="1.0" standalone="no"?>
<!DOCTYPE svg PUBLIC "-//W3C//DTD SVG 20010904//EN"
 "http://www.w3.org/TR/2001/REC-SVG-20010904/DTD/svg10.dtd">
<svg version="1.0" xmlns="http://www.w3.org/2000/svg"
 width="926.000000pt" height="980.000000pt" viewBox="0 0 926.000000 980.000000"
 preserveAspectRatio="xMidYMid meet">
<metadata>
Created by potrace 1.16, written by Peter Selinger 2001-2019
</metadata>
<g transform="translate(0.000000,980.000000) scale(0.100000,-0.100000)"
fill="white" stroke="none">
<path d="M2170 9790 c-36 -4 -76 -12 -90 -18 -34 -14 -79 -59 -92 -90 -5 -15
-14 -139 -20 -277 -6 -137 -11 -251 -12 -252 -1 -1 -188 -7 -416 -12 -228 -6
-433 -15 -455 -20 -52 -13 -110 -74 -125 -132 -18 -65 2 -141 49 -191 50 -53
79 -57 559 -65 l402 -6 0 -353 0 -352 -62 -6 c-35 -3 -216 -8 -403 -11 -457
-7 -485 -12 -532 -105 -28 -54 -29 -120 -4 -175 43 -95 77 -103 486 -116 176
-5 362 -12 413 -15 l92 -6 1 -56 c0 -32 4 -145 8 -254 7 -164 11 -202 28 -235
48 -94 157 -108 793 -100 592 8 728 25 942 117 182 78 339 190 489 348 111
116 164 192 235 335 l59 117 230 0 c259 0 332 8 386 45 61 40 73 67 79 169 l5
91 250 3 c765 9 1093 -48 1540 -268 332 -163 618 -395 842 -682 227 -290 406
-672 458 -977 40 -236 45 -673 10 -880 -59 -352 -244 -750 -490 -1056 -96
-119 -296 -312 -417 -403 -263 -197 -521 -326 -887 -442 l-163 -52 -717 -4
c-394 -3 -1393 -9 -2221 -14 -1801 -12 -2018 -20 -2218 -82 -86 -26 -322 -144
-432 -215 -375 -244 -660 -657 -737 -1073 -27 -148 -24 -538 5 -677 69 -321
229 -603 483 -848 209 -203 414 -323 744 -437 l130 -46 3857 -7 3857 -7 52 43
c118 98 118 229 2 327 l-51 42 -3373 0 c-3779 1 -4145 5 -4394 55 -91 19 -287
116 -396 196 -286 212 -467 499 -525 833 -24 137 -15 357 21 495 114 439 433
781 865 925 176 58 145 57 1305 66 589 5 1520 9 2070 10 1548 0 1756 14 2105
135 347 121 634 274 875 465 102 81 324 298 424 415 411 478 613 980 662 1643
31 432 -69 896 -288 1337 -230 461 -551 829 -962 1099 -216 143 -489 277 -716
351 -288 95 -526 121 -1312 141 l-263 6 0 80 c0 107 -24 148 -110 194 -31 17
-68 19 -305 24 l-270 5 -58 110 c-85 159 -135 224 -281 371 -142 142 -255 224
-402 294 -180 85 -301 114 -554 130 -174 11 -960 11 -1060 0z m815 -406 l460
-6 120 -60 c198 -100 315 -188 416 -315 76 -95 114 -165 170 -307 83 -212 89
-215 442 -223 l237 -6 0 -97 0 -98 -242 -5 c-142 -3 -259 -10 -281 -17 -70
-21 -103 -63 -153 -195 -115 -306 -260 -463 -584 -631 l-115 -59 -548 -10
-547 -10 0 1028 0 1029 83 -6 c45 -3 289 -8 542 -12z"/>
<path d="M3013 8554 c-48 -24 -100 -86 -114 -136 -29 -108 59 -235 171 -246
143 -13 261 169 187 290 -55 91 -163 131 -244 92z"/>
</g>
</svg>
