<svg id="Layer_1" data-name="Layer 1" xmlns="http://www.w3.org/2000/svg" width="1636" height="1007.21" viewBox="0 0 1636 1007.21">
<path class="cls-1" d="M1176,16.15V117.27a15.94,15.94,0,0,0,15.94,15.94H1498a16,16,0,0,1,16,15.94V167.1A16,16,0,0,1,1498,183H1191.62A15.94,15.94,0,0,0,1175.68,199v98.7a15.94,15.94,0,0,0,15.94,15.94H1497A15.94,15.94,0,0,1,1513,329.56v48.81A15.94,15.94,0,0,1,1497,394.31H1196.94A15.94,15.94,0,0,1,1181,378.37V339.15a15.94,15.94,0,0,0-15.94-15.94H527.94A15.94,15.94,0,0,1,512,307.27h0l1.81-291.08a15.94,15.94,0,0,0-15.95-16H338.22A15.94,15.94,0,0,0,322.28,16L320.39,590.2a16,16,0,0,1-15.95,15.89h-29.8a16,16,0,0,1-15.95-16L260.59,16A15.94,15.94,0,0,0,244.65,0H106.92A15.93,15.93,0,0,0,91,15.89l-1.9,576.43a16,16,0,0,1-15.94,15.89H62.23a15.94,15.94,0,0,1-15.95-15.93L46,16.14A15.94,15.94,0,0,0,30.06.21H15.94A15.93,15.93,0,0,0,0,16.17l.3,622.11a15.94,15.94,0,0,0,15.94,15.93H119a16,16,0,0,0,15.94-15.89l1.89-576.43a16,16,0,0,1,16-15.89h45.72a16,16,0,0,1,15.95,16l-1.9,574.1a15.94,15.94,0,0,0,15.94,16H350.29a15.94,15.94,0,0,0,15.94-15.89L368.13,62a15.94,15.94,0,0,1,15.94-15.89h67.51a15.94,15.94,0,0,1,15.94,16L466,307.07v.2a15.94,15.94,0,0,1-15.94,15.94H404.94A15.94,15.94,0,0,0,389,339.15V675.27a15.94,15.94,0,0,0,15.94,15.94h760.12A15.94,15.94,0,0,0,1181,675.27V656.15a15.94,15.94,0,0,1,15.94-15.94h281.9a15.94,15.94,0,0,1,15.94,15.94v66.32a16,16,0,0,1-15.94,15.95H110.8a15.94,15.94,0,0,0-15.94,15.94v128.9A15.94,15.94,0,0,0,110.8,899.2H1488.65a15.94,15.94,0,0,1,15.94,15.94v29.11a15.93,15.93,0,0,1-15.94,15.94l-1426.71,0A15.94,15.94,0,0,1,46,944.27V756.85a15.94,15.94,0,0,0-15.94-15.94H15.94A15.94,15.94,0,0,0,0,756.85V990.27a15.94,15.94,0,0,0,15.94,15.94l1518.71,0a15.93,15.93,0,0,0,15.94-15.94V869.14a15.94,15.94,0,0,0-15.94-15.94H156.8a15.94,15.94,0,0,1-15.94-15.94v-36.9a15.94,15.94,0,0,1,15.94-15.94h1368a16,16,0,0,0,15.94-15.95V610.15a15.94,15.94,0,0,0-15.94-15.94h-327.9A15.94,15.94,0,0,1,1181,578.27v-122a15.94,15.94,0,0,1,15.94-15.94H1543A15.94,15.94,0,0,0,1559,424.37V283.56A15.94,15.94,0,0,0,1543,267.62H1237.62a15.94,15.94,0,0,1-15.94-15.94V245A15.94,15.94,0,0,1,1237.62,229H1544a16,16,0,0,0,16-15.94V98.15a16,16,0,0,0-16-15.94H1237.94A15.94,15.94,0,0,1,1222,66.27V62.15a15.94,15.94,0,0,1,15.94-15.94h336.12A15.94,15.94,0,0,1,1590,62.15V991.27a15.94,15.94,0,0,0,15.94,15.94h14.12A15.94,15.94,0,0,0,1636,991.27V16.15A15.94,15.94,0,0,0,1620.06.21H1191.94A15.94,15.94,0,0,0,1176,16.15Z"/></svg>